<svg width="158" height="156" viewBox="0 0 158 156" fill="none" xmlns="http://www.w3.org/2000/svg">
<g clip-path="url(#clip0_99_928)">
<path d="M108.148 135.4C97.7531 134.977 87.6225 132.017 78.6518 126.782L75.886 125.108C56.762 113.89 41.3805 97.3328 31.6554 77.4971L30.1973 74.6243C25.5368 65.2649 23.2936 54.9006 23.6698 44.4654L23.8386 40.2812C23.9703 36.9523 25.4342 33.8133 27.9053 31.5611L38.9548 21.4301C40.0282 20.4383 41.5047 19.9984 42.9503 20.2398C44.396 20.4811 45.6466 21.3763 46.3347 22.6623L59.5059 47.3312C60.8372 49.8417 60.299 52.9282 58.1952 54.8475L45.8381 66.1774C44.8123 67.1076 44.5219 68.5959 45.1237 69.8394L47.1575 74.0487C54.4727 88.9046 66.0123 101.303 80.3481 109.711L84.4062 112.124C85.6057 112.819 87.1224 112.651 88.1377 111.71L100.495 100.38C102.589 98.4501 105.729 98.1642 108.141 99.6835L131.839 114.701C133.074 115.485 133.872 116.795 133.999 118.246C134.125 119.697 133.566 121.124 132.485 122.108L121.435 132.239C118.978 134.505 115.711 135.704 112.36 135.568L108.148 135.4Z" fill="white"/>
</g>
<defs>
<clipPath id="clip0_99_928">
<rect width="150.988" height="150.002" fill="white" transform="matrix(0.999208 0.039792 -0.0403178 0.999187 6.5752 0)"/>
</clipPath>
</defs>
</svg>
