<svg width="1513" height="479" viewBox="0 0 1513 479" fill="none" xmlns="http://www.w3.org/2000/svg">
<path d="M555.724 320.578H578.458C578.146 329.12 576.427 336.333 573.302 342.219C570.177 348.052 565.724 352.479 559.943 355.5C554.214 358.521 547.287 360.031 539.162 360.031C532.859 360.031 527.261 358.99 522.365 356.906C517.469 354.771 513.302 351.646 509.865 347.531C506.427 343.417 503.823 338.339 502.052 332.297C500.333 326.203 499.474 319.198 499.474 311.281V291.984C499.474 284.068 500.386 277.062 502.208 270.969C504.083 264.875 506.74 259.771 510.177 255.656C513.667 251.49 517.859 248.365 522.755 246.281C527.703 244.146 533.276 243.078 539.474 243.078C547.755 243.078 554.682 244.641 560.255 247.766C565.828 250.891 570.125 255.448 573.146 261.438C576.219 267.375 578.068 274.641 578.693 283.234H555.802C555.698 277.818 555.099 273.573 554.005 270.5C552.964 267.375 551.297 265.188 549.005 263.938C546.714 262.635 543.537 261.984 539.474 261.984C536.453 261.984 533.849 262.531 531.662 263.625C529.474 264.667 527.677 266.359 526.271 268.703C524.865 271.047 523.823 274.12 523.146 277.922C522.521 281.724 522.208 286.359 522.208 291.828V311.281C522.208 316.646 522.495 321.229 523.068 325.031C523.641 328.781 524.552 331.854 525.802 334.25C527.052 336.646 528.745 338.391 530.88 339.484C533.068 340.578 535.828 341.125 539.162 341.125C543.016 341.125 546.115 340.552 548.458 339.406C550.854 338.26 552.625 336.203 553.771 333.234C554.917 330.266 555.568 326.047 555.724 320.578ZM612.912 348.781L630.568 273.938H653.38L625.568 371.125C624.943 373.26 624.083 375.552 622.99 378C621.896 380.5 620.438 382.844 618.615 385.031C616.844 387.271 614.604 389.094 611.896 390.5C609.188 391.906 605.932 392.609 602.13 392.609C600.203 392.609 598.641 392.479 597.443 392.219C596.297 392.01 594.839 391.646 593.068 391.125V374.094C593.537 374.094 593.979 374.094 594.396 374.094C594.865 374.146 595.307 374.172 595.724 374.172C598.172 374.172 600.125 373.833 601.583 373.156C603.042 372.531 604.214 371.542 605.099 370.188C606.037 368.833 606.818 367.141 607.443 365.109L612.912 348.781ZM608.38 273.938L621.505 334.562L624.474 359.25L609.708 360.656L584.943 273.938H608.38ZM662.99 238.469H684.787V338.859L683.224 358.469H662.99V238.469ZM728.693 313.391V318.938C728.693 325.812 728.146 331.802 727.052 336.906C726.011 342.01 724.37 346.281 722.13 349.719C719.943 353.156 717.13 355.734 713.693 357.453C710.255 359.172 706.193 360.031 701.505 360.031C697.287 360.031 693.667 359.042 690.646 357.062C687.625 355.031 685.073 352.245 682.99 348.703C680.958 345.109 679.292 340.917 677.99 336.125C676.74 331.281 675.828 325.995 675.255 320.266V312.062C675.776 306.438 676.662 301.203 677.912 296.359C679.214 291.516 680.88 287.323 682.912 283.781C684.943 280.188 687.469 277.401 690.49 275.422C693.563 273.391 697.182 272.375 701.349 272.375C706.141 272.375 710.255 273.26 713.693 275.031C717.13 276.75 719.943 279.328 722.13 282.766C724.37 286.203 726.011 290.5 727.052 295.656C728.146 300.76 728.693 306.672 728.693 313.391ZM706.896 318.938V313.391C706.896 309.484 706.74 306.125 706.427 303.312C706.115 300.5 705.542 298.156 704.708 296.281C703.875 294.406 702.677 293 701.115 292.062C699.604 291.125 697.599 290.656 695.099 290.656C692.859 290.656 690.984 291.099 689.474 291.984C687.964 292.818 686.662 294.068 685.568 295.734C684.526 297.349 683.771 299.276 683.302 301.516C682.833 303.703 682.547 306.125 682.443 308.781V323.547C682.495 327.141 682.938 330.318 683.771 333.078C684.604 335.839 685.932 337.974 687.755 339.484C689.63 340.995 692.13 341.75 695.255 341.75C697.703 341.75 699.682 341.333 701.193 340.5C702.703 339.667 703.875 338.339 704.708 336.516C705.594 334.693 706.167 332.349 706.427 329.484C706.74 326.568 706.896 323.052 706.896 318.938ZM776.193 360.031C770.412 360.031 765.281 359.146 760.802 357.375C756.375 355.604 752.625 353.052 749.552 349.719C746.479 346.333 744.136 342.245 742.521 337.453C740.906 332.661 740.099 327.193 740.099 321.047V314.094C740.099 307.219 740.88 301.203 742.443 296.047C744.005 290.839 746.219 286.464 749.083 282.922C751.948 279.38 755.464 276.75 759.63 275.031C763.849 273.26 768.615 272.375 773.927 272.375C779.24 272.375 783.901 273.26 787.912 275.031C791.974 276.75 795.333 279.354 797.99 282.844C800.646 286.281 802.651 290.552 804.005 295.656C805.359 300.76 806.037 306.698 806.037 313.469V323.469H749.396V308.078H784.552V306.125C784.552 302.688 784.188 299.823 783.458 297.531C782.729 295.188 781.583 293.443 780.021 292.297C778.458 291.151 776.375 290.578 773.771 290.578C771.583 290.578 769.734 291.021 768.224 291.906C766.714 292.792 765.516 294.172 764.63 296.047C763.745 297.922 763.094 300.37 762.677 303.391C762.261 306.359 762.052 309.927 762.052 314.094V321.047C762.052 324.953 762.391 328.234 763.068 330.891C763.745 333.495 764.734 335.63 766.037 337.297C767.391 338.911 769.031 340.083 770.958 340.812C772.886 341.49 775.125 341.828 777.677 341.828C781.531 341.828 784.995 341.151 788.068 339.797C791.193 338.391 793.849 336.49 796.037 334.094L804.787 347.375C803.276 349.354 801.193 351.333 798.537 353.312C795.88 355.292 792.703 356.906 789.005 358.156C785.307 359.406 781.037 360.031 776.193 360.031ZM840.568 292.766V358.469H818.693V273.938H839.318L840.568 292.766ZM860.49 273.312L860.177 295.109C859.188 294.901 857.99 294.745 856.583 294.641C855.229 294.536 854.031 294.484 852.99 294.484C850.542 294.484 848.458 294.875 846.74 295.656C845.021 296.385 843.589 297.505 842.443 299.016C841.349 300.474 840.516 302.297 839.943 304.484C839.37 306.672 839.031 309.146 838.927 311.906L834.787 310.344C834.787 304.823 835.203 299.771 836.037 295.188C836.922 290.552 838.224 286.542 839.943 283.156C841.662 279.719 843.719 277.062 846.115 275.188C848.563 273.312 851.323 272.375 854.396 272.375C855.438 272.375 856.531 272.479 857.677 272.688C858.875 272.844 859.813 273.052 860.49 273.312Z" fill="#00A6FB"/>
<path d="M920.88 328.547C920.88 326.516 920.698 324.667 920.333 323C919.969 321.333 919.188 319.797 917.99 318.391C916.844 316.984 915.151 315.578 912.912 314.172C910.724 312.766 907.859 311.307 904.318 309.797C900.099 308.026 896.011 306.151 892.052 304.172C888.094 302.141 884.526 299.797 881.349 297.141C878.172 294.484 875.646 291.359 873.771 287.766C871.948 284.12 871.037 279.849 871.037 274.953C871.037 270.161 871.896 265.812 873.615 261.906C875.386 258 877.886 254.667 881.115 251.906C884.344 249.094 888.12 246.932 892.443 245.422C896.818 243.911 901.688 243.156 907.052 243.156C914.344 243.156 920.646 244.667 925.958 247.688C931.323 250.708 935.464 254.849 938.38 260.109C941.349 265.37 942.833 271.411 942.833 278.234H920.021C920.021 275.005 919.552 272.167 918.615 269.719C917.729 267.219 916.297 265.266 914.318 263.859C912.339 262.453 909.787 261.75 906.662 261.75C903.745 261.75 901.323 262.349 899.396 263.547C897.521 264.693 896.115 266.281 895.177 268.312C894.292 270.292 893.849 272.531 893.849 275.031C893.849 276.906 894.292 278.599 895.177 280.109C896.115 281.568 897.391 282.896 899.005 284.094C900.62 285.24 902.521 286.359 904.708 287.453C906.948 288.547 909.396 289.615 912.052 290.656C917.208 292.688 921.766 294.927 925.724 297.375C929.682 299.771 932.99 302.479 935.646 305.5C938.302 308.469 940.307 311.828 941.662 315.578C943.016 319.328 943.693 323.599 943.693 328.391C943.693 333.13 942.859 337.453 941.193 341.359C939.578 345.214 937.208 348.547 934.083 351.359C930.958 354.12 927.182 356.255 922.755 357.766C918.38 359.276 913.484 360.031 908.068 360.031C902.807 360.031 897.833 359.302 893.146 357.844C888.458 356.333 884.318 354.068 880.724 351.047C877.182 347.974 874.396 344.094 872.365 339.406C870.333 334.667 869.318 329.068 869.318 322.609H892.208C892.208 326.047 892.547 328.99 893.224 331.438C893.901 333.833 894.943 335.76 896.349 337.219C897.755 338.625 899.474 339.693 901.505 340.422C903.589 341.099 905.958 341.438 908.615 341.438C911.636 341.438 914.031 340.865 915.802 339.719C917.625 338.573 918.927 337.036 919.708 335.109C920.49 333.182 920.88 330.995 920.88 328.547ZM979.396 238.469V358.469H957.521V238.469H979.396ZM976.271 313.312L970.333 313.469C970.333 307.531 970.932 302.062 972.13 297.062C973.328 292.062 975.099 287.714 977.443 284.016C979.839 280.318 982.703 277.453 986.037 275.422C989.422 273.391 993.146 272.375 997.208 272.375C1000.7 272.375 1003.88 272.974 1006.74 274.172C1009.6 275.37 1012.08 277.245 1014.16 279.797C1016.3 282.349 1017.94 285.734 1019.08 289.953C1020.23 294.12 1020.8 299.172 1020.8 305.109V358.469H998.849V304.953C998.849 301.307 998.484 298.443 997.755 296.359C997.026 294.276 995.932 292.818 994.474 291.984C993.016 291.099 991.193 290.656 989.005 290.656C986.662 290.656 984.656 291.229 982.99 292.375C981.375 293.521 980.073 295.135 979.083 297.219C978.094 299.25 977.365 301.646 976.896 304.406C976.479 307.167 976.271 310.135 976.271 313.312ZM1059.79 273.938V358.469H1037.83V273.938H1059.79ZM1036.82 251.984C1036.82 248.599 1037.89 245.812 1040.02 243.625C1042.21 241.438 1045.15 240.344 1048.85 240.344C1052.49 240.344 1055.39 241.438 1057.52 243.625C1059.66 245.812 1060.72 248.599 1060.72 251.984C1060.72 255.37 1059.66 258.182 1057.52 260.422C1055.39 262.609 1052.49 263.703 1048.85 263.703C1045.15 263.703 1042.21 262.609 1040.02 260.422C1037.89 258.182 1036.82 255.37 1036.82 251.984ZM1111.19 360.031C1105.41 360.031 1100.28 359.146 1095.8 357.375C1091.38 355.604 1087.63 353.052 1084.55 349.719C1081.48 346.333 1079.14 342.245 1077.52 337.453C1075.91 332.661 1075.1 327.193 1075.1 321.047V314.094C1075.1 307.219 1075.88 301.203 1077.44 296.047C1079.01 290.839 1081.22 286.464 1084.08 282.922C1086.95 279.38 1090.46 276.75 1094.63 275.031C1098.85 273.26 1103.61 272.375 1108.93 272.375C1114.24 272.375 1118.9 273.26 1122.91 275.031C1126.97 276.75 1130.33 279.354 1132.99 282.844C1135.65 286.281 1137.65 290.552 1139.01 295.656C1140.36 300.76 1141.04 306.698 1141.04 313.469V323.469H1084.4V308.078H1119.55V306.125C1119.55 302.688 1119.19 299.823 1118.46 297.531C1117.73 295.188 1116.58 293.443 1115.02 292.297C1113.46 291.151 1111.38 290.578 1108.77 290.578C1106.58 290.578 1104.73 291.021 1103.22 291.906C1101.71 292.792 1100.52 294.172 1099.63 296.047C1098.74 297.922 1098.09 300.37 1097.68 303.391C1097.26 306.359 1097.05 309.927 1097.05 314.094V321.047C1097.05 324.953 1097.39 328.234 1098.07 330.891C1098.74 333.495 1099.73 335.63 1101.04 337.297C1102.39 338.911 1104.03 340.083 1105.96 340.812C1107.89 341.49 1110.13 341.828 1112.68 341.828C1116.53 341.828 1119.99 341.151 1123.07 339.797C1126.19 338.391 1128.85 336.49 1131.04 334.094L1139.79 347.375C1138.28 349.354 1136.19 351.333 1133.54 353.312C1130.88 355.292 1127.7 356.906 1124.01 358.156C1120.31 359.406 1116.04 360.031 1111.19 360.031ZM1176.66 238.469V358.469H1154.71V238.469H1176.66ZM1234.94 339.797V238.469H1256.9V358.469L1237.05 358.547L1234.94 339.797ZM1191.11 319.172V313.547C1191.11 306.672 1191.69 300.656 1192.83 295.5C1194.03 290.344 1195.8 286.047 1198.15 282.609C1200.49 279.172 1203.35 276.62 1206.74 274.953C1210.18 273.234 1214.11 272.375 1218.54 272.375C1222.55 272.375 1226.06 273.391 1229.08 275.422C1232.16 277.401 1234.76 280.188 1236.9 283.781C1239.03 287.375 1240.75 291.62 1242.05 296.516C1243.35 301.411 1244.27 306.776 1244.79 312.609V320.734C1244.16 326.255 1243.2 331.411 1241.9 336.203C1240.65 340.995 1238.93 345.161 1236.74 348.703C1234.6 352.245 1232.03 355.031 1229.01 357.062C1225.98 359.042 1222.47 360.031 1218.46 360.031C1214.03 360.031 1210.1 359.146 1206.66 357.375C1203.28 355.604 1200.41 353 1198.07 349.562C1195.78 346.073 1194.03 341.802 1192.83 336.75C1191.69 331.646 1191.11 325.786 1191.11 319.172ZM1212.99 313.547V319.172C1212.99 323.13 1213.17 326.542 1213.54 329.406C1213.95 332.219 1214.6 334.536 1215.49 336.359C1216.43 338.13 1217.65 339.458 1219.16 340.344C1220.67 341.177 1222.55 341.594 1224.79 341.594C1227.7 341.594 1230.07 340.865 1231.9 339.406C1233.72 337.896 1235.07 335.839 1235.96 333.234C1236.9 330.578 1237.42 327.531 1237.52 324.094V309.328C1237.42 306.464 1237.08 303.885 1236.51 301.594C1235.93 299.302 1235.13 297.349 1234.08 295.734C1233.04 294.12 1231.74 292.87 1230.18 291.984C1228.67 291.099 1226.9 290.656 1224.86 290.656C1222.68 290.656 1220.8 291.099 1219.24 291.984C1217.73 292.87 1216.53 294.25 1215.65 296.125C1214.76 297.948 1214.08 300.318 1213.61 303.234C1213.2 306.099 1212.99 309.536 1212.99 313.547Z" fill="white"/>
<path d="M336.423 2.43499L188.604 58.094V171.082C188.604 264.774 251.612 352.159 336.423 373.495C421.234 352.159 484.242 264.774 484.242 171.082V58.094L336.423 2.43499ZM468.884 171.082C468.884 245.294 400.17 335.772 336.423 356.737C272.676 335.772 204.922 245.479 204.922 171.082V70.6621L336.423 21.5865L468.884 70.6621V171.082Z" fill="url(#paint0_linear_152_32)"/>
<path d="M148.381 0.423828L0.562622 56.0828V169.071C0.562622 262.763 63.5704 350.148 148.381 371.484C233.193 350.148 296.2 262.763 296.2 169.071V56.0828L148.381 0.423828ZM280.842 169.071C280.842 243.283 212.128 333.761 148.381 354.726C84.6346 333.761 16.8803 243.468 16.8803 169.071V68.651L148.381 19.5753L280.842 68.651V169.071Z" fill="url(#paint1_linear_152_32)"/>
<path d="M243.653 36.8311L220.216 45.6562L148.555 19.1064L148.381 19.042L148.206 19.1064L16.7052 68.1826L16.38 68.3037V169.07C16.38 206.408 33.3749 247.682 58.3204 282.229C83.2642 316.773 116.218 344.675 148.226 355.201L148.382 355.253L148.537 355.201C176.051 346.153 204.441 324.23 227.866 296.296C231.935 302.122 236.274 307.726 240.861 313.082C215.99 341.15 184.126 361.945 148.381 370.967C63.8807 349.64 1.06262 262.517 1.06262 169.07V56.4277L148.381 0.957031L243.653 36.8311ZM241.942 277.923C243.385 280.051 244.859 282.157 246.362 284.239C249.117 288.054 251.969 291.788 254.907 295.427C250.719 301.302 246.251 306.944 241.529 312.324C236.939 306.958 232.6 301.339 228.531 295.498C232.12 291.184 235.591 286.731 238.921 282.16C239.942 280.759 240.947 279.345 241.942 277.923ZM244.013 55.5391L204.747 70.1934L204.422 70.3154V171.082C204.422 205.857 219.166 244.045 241.343 277.034C240.281 278.558 239.206 280.072 238.113 281.571C234.851 286.05 231.452 290.414 227.942 294.644C203.566 259.29 189.105 215.914 189.105 171.082V58.4385L220.219 46.7236L244.013 55.5391ZM268.785 46.2939L245.447 55.0039L221.647 46.1855L245.072 37.3652L268.785 46.2939ZM469.384 70.3145L469.058 70.1934L336.597 21.1172L336.423 21.0527L336.248 21.1182L270.21 45.7627L246.49 36.8311L336.423 2.96875L483.742 58.4395V171.082C483.742 264.529 420.923 351.651 336.423 372.978C299.832 363.743 267.309 342.17 242.19 313.089C246.907 307.72 251.372 302.09 255.561 296.229C279.11 325.156 308.055 347.934 336.267 357.212L336.423 357.264L336.579 357.212C368.586 346.686 401.779 318.739 426.963 284.172C452.148 249.603 469.384 208.328 469.384 171.082V70.3145ZM281.343 68.3027L281.016 68.1816L246.883 55.5352L270.209 46.8301L295.7 56.4277V169.07C295.7 214.728 280.702 258.875 255.507 294.577C252.644 291.024 249.862 287.378 247.173 283.654C245.601 281.477 244.06 279.273 242.554 277.045C265.748 243.566 281.343 204.497 281.343 169.07V68.3027Z" stroke="black"/>
<path d="M243.653 36.8311L220.216 45.6562L148.555 19.1064L148.381 19.042L148.206 19.1064L16.7052 68.1826L16.38 68.3037V169.07C16.38 206.408 33.3749 247.682 58.3204 282.229C83.2642 316.773 116.218 344.675 148.226 355.201L148.382 355.253L148.537 355.201C176.051 346.153 204.441 324.23 227.866 296.296C231.935 302.122 236.274 307.726 240.861 313.082C215.99 341.15 184.126 361.945 148.381 370.967C63.8807 349.64 1.06262 262.517 1.06262 169.07V56.4277L148.381 0.957031L243.653 36.8311ZM241.942 277.923C243.385 280.051 244.859 282.157 246.362 284.239C249.117 288.054 251.969 291.788 254.907 295.427C250.719 301.302 246.251 306.944 241.529 312.324C236.939 306.958 232.6 301.339 228.531 295.498C232.12 291.184 235.591 286.731 238.921 282.16C239.942 280.759 240.947 279.345 241.942 277.923ZM244.013 55.5391L204.747 70.1934L204.422 70.3154V171.082C204.422 205.857 219.166 244.045 241.343 277.034C240.281 278.558 239.206 280.072 238.113 281.571C234.851 286.05 231.452 290.414 227.942 294.644C203.566 259.29 189.105 215.914 189.105 171.082V58.4385L220.219 46.7236L244.013 55.5391ZM268.785 46.2939L245.447 55.0039L221.647 46.1855L245.072 37.3652L268.785 46.2939ZM469.384 70.3145L469.058 70.1934L336.597 21.1172L336.423 21.0527L336.248 21.1182L270.21 45.7627L246.49 36.8311L336.423 2.96875L483.742 58.4395V171.082C483.742 264.529 420.923 351.651 336.423 372.978C299.832 363.743 267.309 342.17 242.19 313.089C246.907 307.72 251.372 302.09 255.561 296.229C279.11 325.156 308.055 347.934 336.267 357.212L336.423 357.264L336.579 357.212C368.586 346.686 401.779 318.739 426.963 284.172C452.148 249.603 469.384 208.328 469.384 171.082V70.3145ZM281.343 68.3027L281.016 68.1816L246.883 55.5352L270.209 46.8301L295.7 56.4277V169.07C295.7 214.728 280.702 258.875 255.507 294.577C252.644 291.024 249.862 287.378 247.173 283.654C245.601 281.477 244.06 279.273 242.554 277.045C265.748 243.566 281.343 204.497 281.343 169.07V68.3027Z" stroke="black" stroke-opacity="0.22"/>
<defs>
<linearGradient id="paint0_linear_152_32" x1="161.789" y1="0.423828" x2="161.789" y2="373.495" gradientUnits="userSpaceOnUse">
<stop stop-color="white"/>
<stop offset="0.831731" stop-color="#00A6FB"/>
</linearGradient>
<linearGradient id="paint1_linear_152_32" x1="99.1085" y1="0.423828" x2="99.1085" y2="371.484" gradientUnits="userSpaceOnUse">
<stop stop-color="white"/>
<stop offset="0.831731" stop-color="#00A6FB"/>
</linearGradient>
</defs>
</svg>
