<svg width="343" height="390" viewBox="0 0 343 390" fill="none" xmlns="http://www.w3.org/2000/svg">
<path d="M217.368 113.92L217.013 113.812C198.264 108.146 183.073 98.2995 174.001 85.9932C164.938 73.6988 162.537 59.7087 167.165 46.3906C171.798 33.0562 183.211 21.1637 199.522 12.7842C215.831 4.4063 235.988 0.0804538 256.548 0.55957C277.108 1.03873 296.765 6.29278 312.162 15.4062C327.56 24.5209 337.708 36.9072 340.948 50.415C344.185 63.9096 340.347 77.7616 330.023 89.6162C319.692 101.479 303.51 110.597 284.218 115.378L283.838 115.473V294.544C283.795 319.56 268.963 343.608 242.468 361.382C215.972 379.156 180.018 389.17 142.493 389.199L141.13 389.195C112.521 389.01 84.6655 383.011 61.2459 371.989C37.4521 360.792 19.4175 344.965 9.55745 326.693C-0.296709 308.432 -1.52074 288.595 6.03987 269.86C13.6051 251.115 29.6144 234.349 51.9373 221.871C53.4101 221.047 55.2351 220.532 57.1746 220.407C59.1135 220.282 61.0588 220.555 62.7518 221.181C64.4468 221.807 65.7878 222.751 66.6248 223.863C67.4568 224.969 67.7542 226.187 67.5203 227.371C63.891 245.715 76.9229 261.173 90.7108 271.992C102.806 281.483 115.639 287.531 118.869 288.982L119.636 289.32C121.397 290.064 122.708 291.154 123.414 292.394C124.113 293.621 124.194 294.948 123.658 296.198C123.116 297.462 121.956 298.616 120.3 299.454C118.645 300.291 116.615 300.751 114.514 300.753H68.1707L68.2918 301.352C70.8626 314.075 80.5268 325.605 95.2283 333.651C109.933 341.699 128.625 345.69 147.522 344.834C166.419 343.978 184.149 338.337 197.12 329.027C210.092 319.716 217.37 307.399 217.368 294.545V113.92ZM275.59 59.8369C275.583 55.7771 273.176 51.9491 269.023 49.1631C264.871 46.3773 259.269 44.8256 253.45 44.8213C249.106 44.8209 244.85 45.684 241.221 47.3105C237.593 48.9364 234.729 51.2631 233.026 54.0205C231.318 56.7862 230.862 59.8523 231.74 62.8145C232.616 65.7673 234.765 68.4422 237.864 70.5215C240.964 72.6012 244.897 74.0075 249.159 74.5762C253.422 75.145 257.843 74.8532 261.865 73.7354C265.885 72.6181 269.347 70.719 271.798 68.2578C274.252 65.7937 275.59 62.8647 275.59 59.8379V59.8369Z" fill="#021939" stroke="#F0F6F5"/>
<path d="M114.511 294.544C114.511 294.544 50.006 267.52 58.111 226.592L58.1 226.589C41.0506 236.116 27.8614 248.376 19.7542 262.232C11.6469 276.089 8.88398 291.094 11.7213 305.857C14.5585 320.62 22.9043 334.665 35.9853 346.688C49.0663 358.712 66.4595 368.327 86.5535 374.642C106.647 380.957 128.792 383.768 150.936 382.814C173.08 381.86 194.507 377.172 213.232 369.185C231.957 361.198 247.374 350.17 258.055 337.122C268.736 324.075 274.336 309.43 274.335 294.544V110.977C292.566 107.631 308.409 100.019 318.998 89.5157C329.586 79.0129 334.219 66.3142 332.059 53.7182C329.899 41.1221 321.088 29.461 307.221 20.8456C293.354 12.2301 275.347 7.22957 256.46 6.74909C237.573 6.2686 219.054 10.3399 204.254 18.2261C189.454 26.1123 179.352 37.2922 175.776 49.7424C172.2 62.1925 175.387 75.0901 184.759 86.1007C194.131 97.1113 209.069 105.507 226.87 109.769V294.544C226.908 301.994 224.754 309.376 220.53 316.266C216.307 323.156 210.098 329.42 202.258 334.697C194.419 339.974 185.104 344.161 174.847 347.018C164.591 349.875 153.594 351.345 142.488 351.345C131.383 351.345 120.386 349.875 110.13 347.018C99.8732 344.161 90.5581 339.974 82.7188 334.697C74.8794 329.42 68.67 323.156 64.4466 316.266C60.2231 309.376 58.0688 301.994 58.107 294.544H66.446M271.972 77.0525C266.212 79.8418 259.221 81.2498 252.123 81.05C245.026 80.8502 238.235 79.0541 232.843 75.951C227.452 72.8477 223.774 68.6179 222.401 63.9422C221.029 59.2666 222.041 54.417 225.276 50.1742C228.51 45.9314 233.779 42.5421 240.233 40.5518C246.688 38.5614 253.953 38.0859 260.86 39.2018C267.766 40.3176 273.912 42.9598 278.308 46.7032C282.704 50.4466 285.095 55.0734 285.095 59.8389" fill="#00356A"/>
<path d="M114.511 294.544C114.511 294.544 50.006 267.52 58.111 226.592L58.1 226.589C41.0506 236.116 27.8614 248.376 19.7542 262.232C11.6469 276.089 8.88398 291.094 11.7213 305.857C14.5585 320.62 22.9043 334.665 35.9853 346.688C49.0663 358.712 66.4595 368.327 86.5535 374.642C106.647 380.957 128.792 383.768 150.936 382.814C173.08 381.86 194.507 377.172 213.232 369.185C231.957 361.198 247.374 350.17 258.055 337.122C268.736 324.075 274.336 309.43 274.335 294.544V110.977C292.566 107.631 308.409 100.019 318.998 89.5157C329.586 79.0129 334.219 66.3142 332.059 53.7182C329.899 41.1221 321.088 29.461 307.221 20.8456C293.354 12.2301 275.347 7.22957 256.46 6.74909C237.573 6.2686 219.054 10.3399 204.254 18.2261C189.454 26.1123 179.352 37.2922 175.776 49.7424C172.2 62.1925 175.387 75.0901 184.759 86.1007C194.131 97.1113 209.069 105.507 226.87 109.769V294.544C226.908 301.994 224.754 309.376 220.53 316.266C216.307 323.156 210.098 329.42 202.258 334.697C194.419 339.974 185.104 344.161 174.847 347.018C164.591 349.875 153.594 351.345 142.488 351.345C131.383 351.345 120.386 349.875 110.13 347.018C99.8732 344.161 90.5581 339.974 82.7188 334.697C74.8794 329.42 68.67 323.156 64.4466 316.266C60.2231 309.376 58.0688 301.994 58.107 294.544H66.446M271.972 77.0525C266.212 79.8418 259.221 81.2498 252.123 81.05C245.026 80.8502 238.235 79.0541 232.843 75.9509C227.452 72.8478 223.774 68.6179 222.401 63.9422C221.029 59.2666 222.041 54.417 225.276 50.1742C228.51 45.9314 233.779 42.5421 240.233 40.5517C246.688 38.5614 253.953 38.0859 260.86 39.2018C267.766 40.3176 273.912 42.9598 278.308 46.7032C282.704 50.4466 285.095 55.0734 285.095 59.8389" stroke="#F0F6F5" stroke-width="2" stroke-linecap="round" stroke-linejoin="round"/>
</svg>
