<svg width="485" height="374" viewBox="0 0 485 374" fill="none" xmlns="http://www.w3.org/2000/svg">
<path d="M336.423 2.07952L188.604 57.7385V170.726C188.604 264.419 251.612 351.803 336.423 373.139C421.234 351.803 484.242 264.419 484.242 170.726V57.7385L336.423 2.07952ZM468.884 170.726C468.884 244.938 400.17 335.417 336.423 356.382C272.676 335.417 204.922 245.124 204.922 170.726V70.3067L336.423 21.231L468.884 70.3067V170.726Z" fill="url(#paint0_linear_104_1073)"/>
<path d="M148.381 0.0683594L0.562622 55.7273V168.715C0.562622 262.408 63.5704 349.792 148.381 371.128C233.193 349.792 296.2 262.408 296.2 168.715V55.7273L148.381 0.0683594ZM280.842 168.715C280.842 242.927 212.128 333.406 148.381 354.371C84.6346 333.406 16.8803 243.113 16.8803 168.715V68.2955L148.381 19.2198L280.842 68.2955V168.715Z" fill="url(#paint1_linear_104_1073)"/>
<path d="M243.653 36.4756L220.216 45.3008L148.555 18.751L148.381 18.6865L148.206 18.751L16.7052 67.8271L16.38 67.9482V168.715C16.38 206.052 33.3749 247.326 58.3204 281.873C83.2642 316.418 116.218 344.319 148.226 354.846L148.382 354.897L148.537 354.846C176.051 345.797 204.441 323.874 227.866 295.94C231.935 301.766 236.274 307.371 240.861 312.727C215.99 340.794 184.126 361.59 148.381 370.611C63.8807 349.285 1.06262 262.162 1.06262 168.715V56.0723L148.381 0.601562L243.653 36.4756ZM241.942 277.567C243.385 279.696 244.859 281.802 246.362 283.884C249.117 287.699 251.969 291.433 254.907 295.071C250.719 300.947 246.251 306.589 241.529 311.969C236.939 306.602 232.6 300.983 228.531 295.143C232.12 290.829 235.591 286.375 238.921 281.805C239.942 280.404 240.947 278.99 241.942 277.567ZM244.013 55.1836L204.747 69.8379L204.422 69.96V170.727C204.422 205.501 219.166 243.69 241.343 276.679C240.281 278.203 239.206 279.716 238.113 281.216C234.851 285.694 231.452 290.059 227.942 294.288C203.566 258.934 189.105 215.559 189.105 170.727V58.083L220.219 46.3682L244.013 55.1836ZM268.785 45.9385L245.447 54.6484L221.647 45.8301L245.072 37.0098L268.785 45.9385ZM469.384 69.959L469.058 69.8379L336.597 20.7617L336.423 20.6973L336.248 20.7627L270.21 45.4072L246.49 36.4756L336.423 2.61328L483.742 58.084V170.727C483.742 264.174 420.923 351.296 336.423 372.622C299.832 363.387 267.309 341.814 242.19 312.733C246.907 307.364 251.372 301.735 255.561 295.874C279.11 324.8 308.055 347.578 336.267 356.856L336.423 356.908L336.579 356.856C368.586 346.33 401.779 318.384 426.963 283.816C452.148 249.247 469.384 207.973 469.384 170.727V69.959ZM281.343 67.9473L281.016 67.8262L246.883 55.1797L270.209 46.4746L295.7 56.0723V168.715C295.7 214.373 280.702 258.52 255.507 294.222C252.644 290.668 249.862 287.023 247.173 283.299C245.601 281.121 244.06 278.917 242.554 276.689C265.748 243.211 281.343 204.141 281.343 168.715V67.9473Z" stroke="black"/>
<path d="M243.653 36.4756L220.216 45.3008L148.555 18.751L148.381 18.6865L148.206 18.751L16.7052 67.8271L16.38 67.9482V168.715C16.38 206.052 33.3749 247.326 58.3204 281.873C83.2642 316.418 116.218 344.319 148.226 354.846L148.382 354.897L148.537 354.846C176.051 345.797 204.441 323.874 227.866 295.94C231.935 301.766 236.274 307.371 240.861 312.727C215.99 340.794 184.126 361.59 148.381 370.611C63.8807 349.285 1.06262 262.162 1.06262 168.715V56.0723L148.381 0.601562L243.653 36.4756ZM241.942 277.567C243.385 279.696 244.859 281.802 246.362 283.884C249.117 287.699 251.969 291.433 254.907 295.071C250.719 300.947 246.251 306.589 241.529 311.969C236.939 306.602 232.6 300.983 228.531 295.143C232.12 290.829 235.591 286.375 238.921 281.805C239.942 280.404 240.947 278.99 241.942 277.567ZM244.013 55.1836L204.747 69.8379L204.422 69.96V170.727C204.422 205.501 219.166 243.69 241.343 276.679C240.281 278.203 239.206 279.716 238.113 281.216C234.851 285.694 231.452 290.059 227.942 294.288C203.566 258.934 189.105 215.559 189.105 170.727V58.083L220.219 46.3682L244.013 55.1836ZM268.785 45.9385L245.447 54.6484L221.647 45.8301L245.072 37.0098L268.785 45.9385ZM469.384 69.959L469.058 69.8379L336.597 20.7617L336.423 20.6973L336.248 20.7627L270.21 45.4072L246.49 36.4756L336.423 2.61328L483.742 58.084V170.727C483.742 264.174 420.923 351.296 336.423 372.622C299.832 363.387 267.309 341.814 242.19 312.733C246.907 307.364 251.372 301.735 255.561 295.874C279.11 324.8 308.055 347.578 336.267 356.856L336.423 356.908L336.579 356.856C368.586 346.33 401.779 318.384 426.963 283.816C452.148 249.247 469.384 207.973 469.384 170.727V69.959ZM281.343 67.9473L281.016 67.8262L246.883 55.1797L270.209 46.4746L295.7 56.0723V168.715C295.7 214.373 280.702 258.52 255.507 294.222C252.644 290.668 249.862 287.023 247.173 283.299C245.601 281.121 244.06 278.917 242.554 276.689C265.748 243.211 281.343 204.141 281.343 168.715V67.9473Z" stroke="black" stroke-opacity="0.22"/>
<defs>
<linearGradient id="paint0_linear_104_1073" x1="161.789" y1="0.0683593" x2="161.789" y2="373.139" gradientUnits="userSpaceOnUse">
<stop stop-color="white"/>
<stop offset="0.831731" stop-color="#00A6FB"/>
</linearGradient>
<linearGradient id="paint1_linear_104_1073" x1="99.1085" y1="0.0683593" x2="99.1085" y2="371.128" gradientUnits="userSpaceOnUse">
<stop stop-color="white"/>
<stop offset="0.831731" stop-color="#00A6FB"/>
</linearGradient>
</defs>
</svg>
