<svg width="443" height="408" viewBox="0 0 443 408" fill="none" xmlns="http://www.w3.org/2000/svg">
<path d="M200.238 364.456L168.11 393.955H147.929L200.238 345.926V364.456ZM357.237 254.19V272.721L428.6 207.196V188.665L357.237 254.19ZM357.237 201.77V220.301L410.745 171.17H390.563L357.237 201.77ZM357.237 359.031V377.561L428.6 312.036V293.505L357.237 359.031ZM376.291 393.955H396.472L428.6 364.456V345.926L376.291 393.955ZM128.875 359.031V377.561L200.238 312.036V293.505L128.875 359.031ZM357.237 306.611V325.141L428.6 259.616V241.085L357.237 306.611ZM200.238 154.776V136.245L128.875 201.77V220.301L200.238 154.776ZM200.238 102.356V83.8254L128.875 149.35V167.881L200.238 102.356ZM200.238 207.196V188.665L128.875 254.19V272.721L200.238 207.196ZM128.875 306.611V325.141L200.238 259.616V241.085L128.875 306.611ZM182.383 13.9102H162.202L128.875 44.5104V63.0408L182.383 13.9102ZM200.238 49.9358V31.4053L128.875 96.9304V115.461L200.238 49.9358Z" fill="#2ECFC5"/>
<path d="M86.0571 158.065H14.694C6.81552 158.065 0.421387 163.936 0.421387 171.17V393.955C0.421387 401.189 6.81552 407.06 14.694 407.06H86.0571C93.9355 407.06 100.33 401.189 100.33 393.955V171.17C100.33 163.936 93.9355 158.065 86.0571 158.065ZM86.0571 393.955H14.694V171.17H86.0571V393.955ZM200.238 0.804688H128.875C120.996 0.804688 114.602 6.67573 114.602 13.9097V393.955C114.602 401.189 120.996 407.06 128.875 407.06H200.238C208.116 407.06 214.511 401.189 214.511 393.955V13.9097C214.511 6.67573 208.116 0.804688 200.238 0.804688ZM200.238 393.955H128.875V13.9097H200.238V393.955ZM314.419 66.3297H243.056C235.177 66.3297 228.783 72.2008 228.783 79.4347V393.955C228.783 401.189 235.177 407.06 243.056 407.06H314.419C322.297 407.06 328.691 401.189 328.691 393.955V79.4347C328.691 72.2008 322.297 66.3297 314.419 66.3297ZM314.419 393.955H243.056V79.4347H314.419V393.955ZM428.6 158.065H357.237C349.358 158.065 342.964 163.936 342.964 171.17V393.955C342.964 401.189 349.358 407.06 357.237 407.06H428.6C436.478 407.06 442.872 401.189 442.872 393.955V171.17C442.872 163.936 436.478 158.065 428.6 158.065ZM428.6 393.955H357.237V171.17H428.6V393.955Z" fill="#ECF4FC"/>
</svg>
