<svg width="408" height="340" viewBox="0 0 408 340" fill="none" xmlns="http://www.w3.org/2000/svg">
<path d="M394.67 2.80664H177.935C170.724 2.80664 164.892 7.72179 164.892 13.7709V91.1057L174.322 81.8424C178.8 77.4382 184.704 74.7224 190.978 73.5877V24.7309H381.626V167.895H190.979V143.93L185.105 149.7C179.973 154.732 172.727 157.855 164.892 158.47V178.856C164.892 184.905 170.724 189.814 177.935 189.814H248.324L212.563 326.221C210.961 332.338 215.563 338.388 222.849 339.737C230.07 341.07 237.33 337.217 238.917 331.106L275.955 189.815H297.487L334.525 331.106C335.913 336.396 341.497 340.005 347.69 339.999C348.652 339.999 349.635 339.917 350.608 339.737C357.894 338.388 362.495 332.339 360.879 326.221L325.121 189.814H394.671C401.875 189.814 407.713 184.905 407.713 178.856V13.7709C407.712 7.72179 401.874 2.80664 394.67 2.80664Z" fill="#F9F9F9"/>
<path d="M291.066 66.825C290.038 64.6481 287.123 63.5792 284.534 64.4409L207.692 87.2282C200.64 82.6407 190.465 83.4603 184.584 89.207L160.201 113.13L138.581 97.5597C138.723 98.8455 139.047 100.095 139.047 101.414V135.216L151.076 143.876C158.214 149.012 168.892 148.218 174.86 142.337L203.888 113.818L227.299 102.312L288.909 72.0264C291.039 70.9946 291.983 68.7898 291.066 66.825Z" fill="#F9F9F9"/>
<path d="M91.5835 72.8867H77.1031C66.0159 72.8867 56.2668 77.4141 50.07 84.315L5.62143 118.697C-1.3043 123.881 -1.93247 132.859 4.30426 138.713L40.5683 172.721C46.7509 178.537 57.4531 179.051 64.378 173.824C71.3212 168.596 71.9077 159.641 65.686 153.814L40.6899 130.363L76.1941 103.67L55.5161 127.274L75.7434 146.248C86.9205 156.742 85.8667 172.865 73.3824 182.263C64.8587 188.683 53.2267 190.19 43.1426 187.229C43.1426 187.229 43.2993 252.787 43.2993 322.995C43.2993 332.386 52.3586 339.998 63.5366 339.998C74.7029 339.998 83.7739 332.386 83.7739 322.995C83.7739 252.808 83.7739 292.861 83.7739 221.661H97.2729C97.2729 292.809 97.2729 252.787 97.2729 322.995C97.2729 327.898 95.6458 332.438 93.0515 336.456C96.4473 338.651 100.673 339.998 105.278 339.998C116.462 339.998 125.521 332.386 125.521 322.995C125.521 252.808 125.547 282.231 125.547 101.414C125.549 85.6583 110.347 72.8867 91.5835 72.8867Z" fill="#F9F9F9"/>
<path d="M66.3101 62.683C71.7212 65.0461 77.7963 66.5126 84.3222 66.5126C90.8646 66.5126 96.9398 65.0461 102.367 62.6788C115.033 57.1652 123.765 46.1884 123.765 33.3769C123.765 15.0757 106.106 0.244141 84.3213 0.244141C62.5403 0.244141 44.8856 15.0757 44.8856 33.3769C44.8865 46.1954 53.6267 57.1764 66.3101 62.683Z" fill="#F9F9F9"/>
</svg>
